PathFileType	4	(X/Y/Z)	path1_16_0-584.trc
DataRate	CameraRate	NumFrames	NumMarkers	Units	OrigDataRate	OrigDataStartFrame	OrigNumFrames
30	30	4	22	m	30	0	584
Frame#	Time	Hip			RHip			RKnee			RAnkle			RBigToe			RSmallToe			RHeel			LHip			LKnee			LAnkle			LBigToe			LSmallToe			LHeel			Neck			Head			Nose			RShoulder			RElbow			RWrist			LShoulder			LElbow			LWrist		
		X1	Y1	Z1	X2	Y2	Z2	X3	Y3	Z3	X4	Y4	Z4	X5	Y5	Z5	X6	Y6	Z6	X7	Y7	Z7	X8	Y8	Z8	X9	Y9	Z9	X10	Y10	Z10	X11	Y11	Z11	X12	Y12	Z12	X13	Y13	Z13	X14	Y14	Z14	X15	Y15	Z15	X16	Y16	Z16	X17	Y17	Z17	X18	Y18	Z18	X19	Y19	Z19	X20	Y20	Z20	X21	Y21	Z21	X22	Y22	Z22
1	0.0333333333333333	2.5341491801428195	0.8338898185218864	0.5949013645545079	2.5392202448707755	0.8153573377951274	0.5120680746799843	2.5303108866124764	0.46186066336172893	0.540657557445705	2.558168763239405	0.10385791084185352	0.5477029643661274	2.377124797382225	0.0372069546855181	0.519140657975362	2.412391246180287	0.02329568735344246	0.47349991569381916	2.6018334477867726	0.04168811842088461	0.547544989121404	2.516976559271495	0.8111816833640075	0.6844316998685979	2.5147027588016506	0.44221713778874683	0.6675138814750678	2.560852631210964	0.09371944154341479	0.6569888797899951	2.3706225367767866	0.01807484557079469	0.6809379142726804	2.4142357574815416	0.02138719931923213	0.7414795607303021	2.6130223564141892	0.038111050787769496	0.6608909817751139	2.5005933896030053	1.4733944912224777	0.6195611003780828	2.461818097185395	1.7391486246838803	0.5695907277058243	2.369116568970444	1.6075359785206866	0.5840391672345666	2.5462044920015954	1.3741009766606171	0.4461503864874173	2.563031791299853	1.0712658582549426	0.4285316252909495	2.50520651038331	0.8441546411966823	0.3910842849269964	2.5074914263159	1.3536020506343907	0.7553724965942036	2.525172521572616	1.0675862860426233	0.8134376861911372	2.5051877262853948	0.8309849761932409	0.8191888066173604
2	0.0666666666666666	2.532028305141223	0.8354430165199513	0.5953833332573117	2.536556519704623	0.813002794786776	0.5146545929105989	2.5253995684485138	0.4617551108331107	0.5391341094333822	2.5626987912043537	0.10195770711829154	0.552118961652012	2.373923597109743	0.037228765010662176	0.524160349496873	2.410616249009633	0.023448683829017044	0.4737827363417291	2.607450583113133	0.03900198426591525	0.5528506008486478	2.5161715394997035	0.8106777416614703	0.6827538231397864	2.5156628608469624	0.44289381882384093	0.6637849682471308	2.5571061503060317	0.0963056597565273	0.6579071545346785	2.376005601955419	0.02044239943595344	0.6807092658232515	2.4161320491652	0.02291515383610747	0.7391789080927673	2.602042289149878	0.04010634004448008	0.6611427069890904	2.4991375581599238	1.4733751030545457	0.6161500919938303	2.4624997063310725	1.7351865843209238	0.5674797474939489	2.368006198137467	1.607991527144105	0.585891476014285	2.5446106646183417	1.3726755434313438	0.441892073412844	2.559613773863251	1.0728677404224232	0.42148155064227	2.5049764406241515	0.8472236619563864	0.388949753909125	2.500345563540872	1.3533960326253722	0.763460835173593	2.5237385977713984	1.0690865880463536	0.8106292078916797	2.5046979624941743	0.8340123821198946	0.8168624373133974
3	0.1	2.5302189642458512	0.8366983935274093	0.5957901804078044	2.534414227482595	0.8112178800795966	0.5167065511224478	2.5206087079504713	0.4619114605832799	0.5367734259613581	2.5664749109564826	0.10030533323990129	0.5555634861572751	2.371444125419413	0.037369200342393584	0.5282235847788296	2.4091913008169237	0.02354078174704288	0.47385337862487764	2.6121436200449915	0.03669152281534188	0.5571583104459737	2.515213663145175	0.8104455657621251	0.6813793105150789	2.5161381692445923	0.4435532399393129	0.6607640195526328	2.553371429979835	0.0992675898247513	0.6589607284374308	2.3801449880803722	0.02237074108205385	0.6806575796472601	2.418270418771373	0.024381670470997492	0.7379926196373099	2.5930251664747	0.04185197560947151	0.661248162065838	2.497894133011944	1.4732516606148955	0.6134203848938532	2.4629158888679243	1.7321852374158762	0.5660594630639053	2.3671069210384066	1.6084706894014789	0.5870983614348151	2.54291774178044	1.371125265052076	0.43769600497074734	2.5573741079649617	1.0738697995696733	0.4165518101932651	2.50476493647778	0.8495671849113374	0.3870949613443612	2.4954576603368217	1.3534647552507406	0.7690596943656256	2.5225179813068412	1.0703081407117379	0.8081782109816336	2.504141064347273	0.8364903016436451	0.8149066696466893
4	0.1333333333333333	2.528925879392776	0.8375212372863564	0.5960837553756735	2.5330553767008475	0.810253846863041	0.5179965279550546	2.5154249612465582	0.4626763651958751	0.5325374238725065	2.5690514021718815	0.09907981633391225	0.5576139416931478	2.369944796723335	0.03763973304373011	0.5308392126975189	2.408151108133384	0.023576423495127948	0.47360635739507917	2.6153541860697644	0.03497137126329899	0.5599019795469209	2.51416855566533	0.8105769506474882	0.680485792531629	2.516011748930285	0.44407951727895484	0.6589303393735115	2.549886533320373	0.10255982796279395	0.6601698714275643	2.382385128415968	0.023624942231310304	0.680816418462951	2.4204382633037858	0.025860897131898125	0.7382324317815706	2.5869718733254983	0.04313224809773569	0.6611775605128434	2.497008525648789	1.4730025695745503	0.6117220574777802	2.462906551918684	1.7305380490812197	0.5655807214920677	2.366553237919087	1.6089475094525474	0.5875701412987978	2.5411711423563146	1.3694714251734437	0.4337842446435818	2.5568389501763304	1.07404069417521	0.41469960507038767	2.5045895010456016	0.8508691072932728	0.38567851641927897	2.4937578192334335	1.3539009645577922	0.7711173953984067	2.52159120936999	1.071099448800561	0.8062837744405985	2.5035452324477347	0.8381228996179725	0.813499777309109
